<svg xmlns="http://www.w3.org/2000/svg" viewBox="0 0 48 48"><title>clip</title><g id="clip"><path d="M44.82,6.21a10.88,10.88,0,0,0-15.37,0L12,23.66a6.92,6.92,0,0,0,9.79,9.78c12.3-12.3,12-11.61,12-13.26a3,3,0,0,0-5.08-2.11L17.59,29.24a1,1,0,0,1-1.38-1.38L33.66,10.42a4.92,4.92,0,1,1,7,7L21.08,36.91A8.87,8.87,0,0,1,8.54,24.37L25.28,7.63a3,3,0,0,0-4.2-4.21L4.33,20.17a14.81,14.81,0,0,0,21,20.95L44.82,21.58A10.88,10.88,0,0,0,44.82,6.21Zm-1.41,14L23.87,39.7A12.81,12.81,0,0,1,5.75,21.58L22.49,4.83a1,1,0,0,1,1.38,1.38L7.12,23A10.87,10.87,0,0,0,22.49,38.33L42,18.79A6.92,6.92,0,1,0,32.24,9L14.8,26.45a3,3,0,0,0,4.2,4.2L30.17,19.49a1,1,0,0,1,1.66.69c0,.57.72-.32-11.45,11.85a4.92,4.92,0,0,1-7-7L30.87,7.63A8.87,8.87,0,1,1,43.41,20.17Z"/></g></svg>